<?xml version="1.0" encoding="UTF-8"?>
<svg width="32px" height="32px" viewBox="0 0 32 32" version="1.1" xmlns="http://www.w3.org/2000/svg" xmlns:xlink="http://www.w3.org/1999/xlink">
    <title>32x32@1x</title>
    <g id="32x32" stroke="none" stroke-width="1" fill="none" fill-rule="evenodd">
        <g id="rocket" fill-rule="nonzero">
            <g id="Group" transform="translate(2, 1)">
                <path d="M28.4966293,0.503370704 C29.2638579,3.37213854 29.1539289,6.42664847 28.1676004,9.24310526 L28.1668423,9.24310526 L19.7568947,0.833157704 L19.7568947,0.832399573 C22.5733515,-0.153928902 25.6278615,-0.263857902 28.4966293,0.503370704 Z" id="Path" fill="#FF7124"></path>
                <path d="M5.02868315,15.0011105 L11.635037,7.31214552 L11.6357951,7.31214552 L14.1914548,4.33723934 C15.8161296,2.71256454 17.7243454,1.54428461 19.7568947,0.832399573 L19.7568947,0.833157704 L28.1668423,9.24310526 L28.1676004,9.24310526 C27.4557154,11.2756546 26.2874355,13.1838704 24.6627607,14.8085452 L21.6878545,17.3642049 L13.9981314,23.9705587 L11.7563379,21.7287653 L9.51378634,19.4862137 L7.27123474,17.2436621 L5.02868315,15.0011105 Z M20.6386011,13.8995461 C22.1685096,12.3703958 22.1685096,9.88979103 20.6386011,8.36064074 C19.1094508,6.83073231 16.6288461,6.83073231 15.0996958,8.36064074 C13.5697874,9.88979103 13.5697874,12.3703958 15.0996958,13.8995461 C16.6288461,15.4294545 19.1094508,15.4294545 20.6386011,13.8995461 Z" id="Shape" fill="#F2D59F"></path>
                <path d="M21.6878545,17.3642049 C21.8197693,20.8212824 20.5658206,24.3223315 17.9267664,26.9613857 C17.1163243,27.7710696 16.2255204,28.4511131 15.2786147,29 L13.9981314,23.9705587 L21.6878545,17.3642049 Z" id="Path" fill="#F2D59F"></path>
                <path d="M20.6386011,8.36064074 C22.1685096,9.88979103 22.1685096,12.3703958 20.6386011,13.8995461 C19.1094508,15.4294545 16.6288461,15.4294545 15.0996958,13.8995461 C13.5697874,12.3703958 13.5697874,9.88979103 15.0996958,8.36064074 C16.6288461,6.83073231 19.1094508,6.83073231 20.6386011,8.36064074 Z" id="Path" fill="#8ECAC1"></path>
                <path d="M13.9981314,23.9705587 L10.9701561,25.0857695 C10.1377282,25.3928125 9.20295262,25.187359 8.57597825,24.5596265 L8.0566585,24.0403068 L11.7563379,21.7287653 L13.9981314,23.9705587 Z" id="Path" fill="#E6B263"></path>
                <polygon id="Path" fill="#E6B263" points="11.7563379 21.7287653 8.0566585 24.0403068 8.05590036 24.0403068 6.50779679 22.4922032 9.51378634 19.4862137"></polygon>
                <path d="M11.635037,7.31214552 L5.02868315,15.0011105 L0,13.7213853 C0.548886868,12.7744796 1.22893041,11.8836757 2.03861435,11.0732336 C4.67766848,8.43417945 8.17720133,7.18023072 11.635037,7.31214552 Z" id="Path" fill="#F2D59F"></path>
                <polygon id="Path" fill="#E6B263" points="9.51378634 19.4862137 6.50779679 22.4922032 4.95969322 20.9433415 7.27123474 17.2436621"></polygon>
                <path d="M7.27123474,17.2436621 L4.95969322,20.9433415 L4.43961533,20.4240217 C3.81264097,19.7962893 3.60718746,18.8622718 3.9134724,18.0298439 L5.02868315,15.0011105 L7.27123474,17.2436621 Z" id="Path" fill="#E6B263"></path>
            </g>
            <g id="Group" fill="#5E2A41">
                <path d="M2.21916218,26.0845628 C2.02252828,26.0845628 1.82581755,26.0094864 1.67582562,25.8594873 C1.37576491,25.5594122 1.37576491,25.0728371 1.67582562,24.7726851 L3.25412189,23.1943131 C3.5541826,22.8943148 4.04073431,22.8943148 4.34087186,23.1943131 C4.64093256,23.4943882 4.64093256,23.9809633 4.34087186,24.2811152 L2.76257558,25.8594873 C2.6125068,26.0094864 2.41587291,26.0845628 2.21916218,26.0845628 Z" id="Path"></path>
                <path d="M0.768420517,32 C0.571709783,32 0.37507589,31.9249236 0.225007115,31.7748476 C-0.0750535936,31.4747725 -0.0749767535,30.9881974 0.225083955,30.6881223 L5.48632768,25.4273945 C5.78638839,25.1273962 6.27294009,25.1273962 6.5730008,25.4274713 C6.87306151,25.7275464 6.87298467,26.2141215 6.57284712,26.5141966 L1.3116034,31.7749245 C1.1616883,31.9250004 0.96505441,32 0.768420517,32 Z" id="Path"></path>
                <path d="M5.63163236,31.601949 C5.43492163,31.601949 5.23836458,31.5268726 5.0882958,31.3768735 C4.78823509,31.0767984 4.78823509,30.5902233 5.0882958,30.2900713 L7.71853346,27.6597843 C8.01859417,27.359786 8.50514588,27.3598628 8.80520659,27.6597843 C9.1052673,27.9598594 9.1052673,28.4464344 8.80520659,28.7465864 L6.17496893,31.3768735 C6.02497699,31.5268726 5.82826626,31.601949 5.63163236,31.601949 Z" id="Path"></path>
                <path d="M16.0227232,25.8371257 C15.8260125,25.8371257 15.6294554,25.7620493 15.4793866,25.6120502 L6.38843081,16.520658 C6.0883701,16.2205828 6.0883701,15.7340078 6.38843081,15.4338558 C6.68849152,15.1338576 7.17504322,15.1338576 7.47518077,15.4338558 L16.5661366,24.5253249 C16.8661973,24.8254 16.8661973,25.3119751 16.5661366,25.612127 C16.4160678,25.7621262 16.2193571,25.8371257 16.0227232,25.8371257 Z" id="Path"></path>
                <path d="M19.9461802,16.792224 C18.6803159,16.792224 17.4904465,16.2991941 16.5956432,15.4039636 C15.700763,14.5094247 15.2077568,13.3194981 15.2077568,12.0535731 C15.2077568,10.787648 15.700763,9.59772146 16.5958737,8.70287519 C17.4903697,7.80795208 18.6802391,7.31492213 19.9461034,7.31492213 C21.2119677,7.31492213 22.4018371,7.80795208 23.2966404,8.70310572 C24.1914438,9.59764462 24.68445,10.7875712 24.68445,12.0534962 C24.68445,13.3192676 24.1915206,14.5091173 23.2966404,15.4038867 L23.2966404,15.4038867 C23.2965636,15.4040404 23.2965636,15.4039636 23.2963331,15.4041941 C22.4016834,16.2992709 21.2118909,16.792224 19.9461802,16.792224 Z M19.9461802,8.8519522 C19.0909496,8.8519522 18.2870481,9.18499331 17.6827005,9.78975417 C17.0776613,10.3944382 16.7446362,11.1983782 16.7446362,12.0536499 C16.7446362,12.9089216 17.0776613,13.7128617 17.6823932,14.3172383 C18.2870481,14.9223065 19.0909496,15.2553476 19.9461802,15.2553476 C20.8014109,15.2553476 21.6053123,14.9223065 22.20966,14.3175457 C22.2098136,14.3174688 22.2098905,14.317392 22.2099673,14.3172383 C22.8146991,13.7128617 23.1477243,12.9089216 23.1477243,12.0536499 C23.1477243,11.1983782 22.8146991,10.3944382 22.2099673,9.79006154 C21.6053123,9.18499331 20.8014109,8.8519522 19.9461802,8.8519522 Z" id="Shape"></path>
                <path d="M6.86115129,22.7688289 C6.72207065,22.7688289 6.58129954,22.7311754 6.454667,22.6519494 C6.09474783,22.4271044 5.98532748,21.952978 6.21016171,21.5931184 L8.55301728,17.8431401 C8.77792834,17.4832036 9.25203194,17.3736243 9.61187428,17.598623 C9.97179345,17.8234681 10.0812138,18.2975944 9.85637957,18.657454 L7.513524,22.4074324 C7.36775827,22.6407302 7.11733628,22.7688289 6.86115129,22.7688289 Z" id="Path"></path>
                <path d="M8.43091831,24.3386713 C8.23428442,24.3386713 8.03765053,24.2635948 7.88758175,24.1135957 C7.58752104,23.8135206 7.5874442,23.3269455 7.88750491,23.0267936 L10.9342161,19.9799362 C11.2342768,19.6799379 11.7208285,19.6799379 12.0208892,19.9799362 C12.3209499,20.2800113 12.3210267,20.7665863 12.020966,21.0666614 L8.97425487,24.1135189 C8.82426294,24.2636717 8.62755221,24.3386713 8.43091831,24.3386713 Z" id="Path"></path>
                <path d="M10.0015306,25.9078989 C9.74534558,25.9078989 9.4949236,25.7798771 9.34915787,25.5465792 C9.12432365,25.1866428 9.23382083,24.7125164 9.59366316,24.4877483 L13.3434615,22.1447802 C13.7033039,21.9197047 14.1774075,22.029284 14.4023185,22.3892973 C14.6271527,22.7492337 14.5176556,23.2232832 14.1578132,23.4481282 L10.4080149,25.7910963 C10.2813055,25.8702454 10.1406112,25.9078989 10.0015306,25.9078989 Z" id="Path"></path>
                <path d="M13.6280774,8.95223338 C13.4508072,8.95223338 13.2726918,8.89121939 13.1276944,8.76665556 C12.8058111,8.49009466 12.7690047,8.00497963 13.0455523,7.68300403 L15.6358331,4.66765257 C15.9123039,4.34583066 16.3973957,4.30894562 16.7194326,4.58558337 C17.041316,4.86214428 17.0781224,5.34725931 16.8014979,5.66915806 L14.2112171,8.68450952 C14.0593042,8.86140399 13.8443055,8.95223338 13.6280774,8.95223338 Z" id="Path"></path>
                <path d="M12.1611224,27.1087372 C11.3582968,27.1087372 10.5687644,26.7948302 9.98347315,26.2087424 L9.47771141,25.7029564 C9.47056528,25.6963478 9.46357282,25.6896624 9.45673405,25.6827465 L5.79192088,22.0176805 C4.94729416,21.1719375 4.66828765,19.9020934 5.08045811,18.7818642 L6.21077643,15.7117999 C6.2425114,15.6257348 6.28930704,15.5460478 6.34901182,15.476581 L13.0448608,7.68308087 C13.3215621,7.36125896 13.806577,7.32445077 14.1284603,7.60101167 C14.4503436,7.87764942 14.4870732,8.36276445 14.2105256,8.68466321 L7.60496375,16.3728873 L6.52259368,19.3127013 C6.31650845,19.8728159 6.4562038,20.5080837 6.87851716,20.9309553 L10.5231982,24.5758881 C10.5302675,24.5824967 10.5373368,24.5891821 10.5441756,24.596098 L11.0705305,25.1224782 C11.4929207,25.5454266 12.1275433,25.6848213 12.6878615,25.4782651 L15.6271502,24.3956125 L26.331134,15.1993285 C26.653171,14.9226907 27.1382628,14.9596526 27.4147335,15.2813977 C27.691358,15.6032964 27.6545516,16.0884883 27.3326683,16.3650492 L16.5234135,25.6515479 C16.45395,25.7112555 16.3743436,25.7581303 16.2883595,25.7897899 L13.2192879,26.9201625 C12.8751209,27.0471085 12.5167386,27.1087372 12.1611224,27.1087372 Z" id="Path"></path>
                <path d="M26.8318243,16.5505502 C26.6351904,16.5505502 26.4385565,16.4754738 26.2884878,16.3254747 C25.988427,16.0253995 25.988427,15.5388245 26.2884878,15.2386725 C27.8164537,13.71071 28.9503836,11.9101825 29.6589264,9.8869616 C30.5607222,7.31177154 30.70595,4.56552714 30.0843134,1.91572173 C27.4348657,1.29413208 24.6885226,1.43936689 22.1134561,2.34112911 C20.0903323,3.04970596 18.2898144,4.18376704 16.7619252,5.71172954 C16.4618645,6.01172781 15.9753897,6.01180465 15.6751753,5.71172954 C15.3751146,5.41165443 15.3751146,4.92507937 15.6751753,4.62492741 C17.3675791,2.93251914 19.36281,1.67604586 21.6053892,0.890625183 C24.614295,-0.162980418 27.8338965,-0.284316808 30.9161846,0.540140525 C31.1815904,0.611144214 31.3889051,0.818468837 31.4599054,1.08388739 C32.2842463,4.16640034 32.1630694,7.38615635 31.1092839,10.3950529 C30.3239009,12.6377398 29.0675648,14.6329895 27.3751609,16.3254747 C27.2251689,16.4754738 27.0285351,16.5505502 26.8318243,16.5505502 Z" id="Path"></path>
                <path d="M30.3833751,10.9095223 C30.1866644,10.9095223 29.9901074,10.8344459 29.8400386,10.6844468 L21.3161629,2.16008507 C21.0161022,1.86000996 21.0161022,1.3734349 21.3161629,1.07328294 C21.6164542,0.773207828 22.1028522,0.773361515 22.4029129,1.07328294 L30.9267885,9.59764462 C31.2268493,9.89771973 31.2268493,10.3842948 30.9267885,10.6844468 C30.7766429,10.8344459 30.580009,10.9095223 30.3833751,10.9095223 Z" id="Path"></path>
                <path d="M6.93253577,16.7457335 C6.86860478,16.7457335 6.80421275,16.7377417 6.74220277,16.7219888 L1.64539692,15.4248651 C1.41203345,15.3654648 1.21993312,15.2000201 1.1266492,14.9780951 C1.03328845,14.7560933 1.04942487,14.5031235 1.17014072,14.2947999 C1.76780325,13.2637095 2.50370118,12.3076187 3.35754871,11.4529618 C6.06854535,8.74183501 9.82126363,7.26920006 13.6532041,7.41581807 C14.0657587,7.42934258 14.396325,7.76799329 14.396325,8.1837952 C14.396325,8.60812676 14.0526959,8.95223338 13.6283079,8.95223338 L13.6275395,8.95223338 C13.6177808,8.95223338 13.6080221,8.9520797 13.5982634,8.95169548 C10.1913257,8.82113783 6.85438936,10.129327 4.44452919,12.5393797 C3.93092976,13.053388 3.46543225,13.6085846 3.05364599,14.1973619 L7.10542606,15.2285291 C7.44621204,15.3072172 7.70055287,15.6125945 7.70055287,15.9772185 C7.70055287,16.4016269 7.35692381,16.7457335 6.93253577,16.7457335 Z" id="Path"></path>
                <path d="M17.320553,30.9349447 C17.2195082,30.9349447 17.1182329,30.9150421 17.0227206,30.8748528 C16.8006527,30.7814876 16.6352927,30.5894549 16.5758953,30.356157 L15.2779886,25.2583381 C15.1732555,24.8469931 15.4218334,24.4287322 15.8330817,24.3240709 C16.2440996,24.2191023 16.662571,24.4678457 16.7673041,24.8791138 L17.803109,28.9478404 C18.3919349,28.5360343 18.9471817,28.0703608 19.4613959,27.5566599 C21.8711023,25.1468377 23.1787677,21.8098949 23.0486005,18.4017946 C23.0324641,17.9776936 23.3631072,17.6208309 23.787111,17.6046169 C24.2104233,17.5867123 24.5681141,17.9191386 24.5843273,18.3431628 C24.7305541,22.1774388 23.259373,25.9318741 20.5477616,28.6436157 C19.692992,29.497581 18.7368703,30.2335911 17.7057526,30.8313592 C17.5872651,30.9001344 17.4541011,30.9349447 17.320553,30.9349447 Z" id="Path"></path>
            </g>
        </g>
    </g>
</svg>